<?xml version="1.0" encoding="UTF-8"?>
<svg xmlns="http://www.w3.org/2000/svg"
     viewBox="0 0 345.96 345.96">

  <g>
    <!-- BLACK OUTER + INNER SHAPE -->
    <path fill="#010101" d="M50.33,295.57C-42.96,202.27-.32,40.29,126.85,6.22c136.02-36.45,256.25,93.69,208.41,226.38-42.59,118.12-195.88,152.03-284.93,62.97ZM165.18,30.33C59.85,36.03-3.26,149.68,47.7,242.44c53.87,98.07,197.02,97.74,250.52-.49,53.63-98.48-21.21-217.68-133.03-211.62Z"/>

    <!-- YELLOW REGION -->
    <path fill="#fddd16" d="M164.44,113.41c43.76-4.7,77.94,33.06,66.39,76.12-12.44,46.4-73.55,58.93-104.39,22.06-29.74-35.55-8.22-93.22,38-98.19Z"/>

    <!-- RED SWOOSH -->
    <path fill="#ed2629" d="M206.5,63.8c.48.48.41,1.62-1.05,1.43-44.75-5.63-90.29,22.85-106,64.78-31.45,83.98,48.81,164.96,132.9,133.64,7.78-2.9,14.55-7.48,22.05-10.88-17.43,18.62-43.79,31.49-69.32,33.97-81.18,7.88-144.36-67-121.91-145.86,16.16-56.76,74.46-91.18,132.26-79.87,1.53.3,10.67,2.38,11.07,2.78Z"/>

    <!-- BLUE BIG SHAPE -->
    <path fill="#0538fd" d="M174.32,251.67v-1.5c31.51,1.03,60.12-13.76,75.24-41.9,31.71-59.01-15.31-127.7-81.51-120.43-3.52.39-7.25,1.82-10.59,2.14-.8.08-2.8.53-2.6-.73,59.02-32.72,132.4,9.56,132.2,77.33-.18,59.45-55.65,100.05-112.74,85.08Z"/>

    <!-- LIGHT BLUE LINE -->
    <path fill="#6383fd" d="M174.32,250.17v1.5c-1.19-.31-2.82-.42-3.75-1.12,0-.66,2.92-.4,3.75-.37Z"/>
  </g>

</svg>